# xmcd
#
# Track frame offsets: 
#        150
#        16349
#        34547
#
# Disc length: 702 seconds
#
# Revision: 2
# Processed by: cddbd v1.5.2PL0 Copyright (c) Steve Scherf et al.
# Submitted via: ExactAudioCopy v1.0b3
#
DISCID=1602bc03
DTITLE=Metronomy - I'm Aquarius
DYEAR=2013
DGENRE=Electronic
TTITLE0=I'm Aquarius (Radio Edit)
TTITLE1=I'm Aquarius
TTITLE2=I'm Aquarius (Instrumental)
EXTD=Polydor
EXTT0=
EXTT1=
EXTT2=
PLAYORDER=
